<?xml version="1.0" standalone="no"?><!DOCTYPE svg PUBLIC "-//W3C//DTD SVG 1.1//EN" "http://www.w3.org/Graphics/SVG/1.1/DTD/svg11.dtd"><svg t="1602755217898" class="icon" viewBox="0 0 1024 1024" version="1.1" xmlns="http://www.w3.org/2000/svg" p-id="1689" xmlns:xlink="http://www.w3.org/1999/xlink" width="200" height="200"><defs><style type="text/css"></style></defs><path d="M512 9.142857A502.857143 502.857143 0 1 1 9.142857 512 502.857143 502.857143 0 0 1 512 9.142857z m0 421.074286a75.072 75.072 0 1 0-75.090286-75.072A75.136 75.136 0 0 0 512 430.217143m0-114.395429a39.414857 39.414857 0 1 1-39.424 39.405715A39.488 39.488 0 0 1 512 315.821714m0 0z m75.090286 353.645715A75.090286 75.090286 0 1 0 512 744.539429a75.136 75.136 0 0 0 75.090286-75.072m-114.514286 0A39.424 39.424 0 1 1 512 708.873143a39.488 39.488 0 0 1-39.424-39.405714m0 0z m196.324571-83.620572a75.072 75.072 0 1 0-75.090285-75.072 75.136 75.136 0 0 0 75.090285 75.072m0-114.477714a39.414857 39.414857 0 1 1-39.424 39.405714 39.478857 39.478857 0 0 1 39.424-39.405714m0 0zM354.496 438.857143a75.072 75.072 0 1 0 75.090286 75.072A75.136 75.136 0 0 0 354.496 438.857143m0 114.395428a39.414857 39.414857 0 1 1 39.414857-39.414857 39.488 39.488 0 0 1-39.414857 39.414857m0 0z m462.573714 252.150858H661.220571A329.380571 329.380571 0 1 0 512.091429 841.142857h305.069714a17.874286 17.874286 0 1 0-0.091429-35.748571m-512.548571-85.942857a292.571429 292.571429 0 1 1 93.312 62.866285 291.529143 291.529143 0 0 1-93.312-62.866285m0 0z" fill="#f96268" p-id="1690"></path></svg>