<?xml version="1.0" standalone="no"?><!DOCTYPE svg PUBLIC "-//W3C//DTD SVG 1.1//EN" "http://www.w3.org/Graphics/SVG/1.1/DTD/svg11.dtd"><svg t="1602754652364" class="icon" viewBox="0 0 1024 1024" version="1.1" xmlns="http://www.w3.org/2000/svg" p-id="912" xmlns:xlink="http://www.w3.org/1999/xlink" width="200" height="200"><defs><style type="text/css"></style></defs><path d="M327.5776 466.8416h371.6608c21.5552-8.0896 29.2864-36.608 9.984-53.2992l-173.3632-150.3232c-12.7488-11.0592-32.2048-11.0592-44.9024 0L317.5936 413.5424c-19.2512 16.6912-11.5712 45.2096 9.984 53.2992z" fill="#DAA7FC" p-id="913"></path><path d="M769.6896 334.4896c-6.144 0-12.288-2.2016-17.2032-6.656l-37.6832-34.2016c-10.4448-9.5232-11.264-25.7024-1.7408-36.1472s25.7024-11.264 36.1472-1.7408l37.6832 34.2016c10.4448 9.5232 11.264 25.7024 1.7408 36.1472a25.3952 25.3952 0 0 1-18.944 8.3968z" fill="#474747" p-id="914"></path><path d="M753.9712 928.7168H272.896c-50.0224 0-90.7264-40.704-90.7264-90.7264v-274.8416h-6.7072c-37.7856 0-71.0144-22.784-84.6336-58.0608-13.6192-35.2768-4.352-74.4448 23.6544-99.8912L452.4544 98.304a90.38336 90.38336 0 0 1 122.0096 0l100.9152 91.648c10.4448 9.5232 11.264 25.7024 1.7408 36.1472s-25.7024 11.264-36.1472 1.7408l-100.9152-91.648a39.34208 39.34208 0 0 0-53.1456 0L148.8384 443.136c-18.6368 16.896-12.5952 37.5808-10.2912 43.52 2.304 5.9392 11.7248 25.2928 36.9152 25.2928h32.3072c14.1312 0 25.6 11.4688 25.6 25.6v300.4416c0 21.8112 17.7152 39.5264 39.5264 39.5264h481.0752c21.8112 0 39.5264-17.7152 39.5264-39.5264v-300.4416c0-14.1312 11.4688-25.6 25.6-25.6h32.3072c25.1904 0 34.6112-19.3536 36.9152-25.2928 2.304-5.9392 8.3456-26.624-10.2912-43.52l-57.4976-52.224c-10.4448-9.5232-11.264-25.7024-1.7408-36.1472s25.7024-11.264 36.1472-1.7408l57.4976 52.224c28.0064 25.3952 37.2736 64.6144 23.6544 99.8912-13.6192 35.2768-46.848 58.0608-84.6336 58.0608h-6.7072v274.8416c-0.0512 49.9712-40.7552 90.6752-90.7776 90.6752z" fill="#474747" p-id="915"></path><path d="M605.7984 807.936H499.3536a32.3584 32.3584 0 0 1-32.3584-32.3584v-106.4448a32.3584 32.3584 0 0 1 32.3584-32.3584h106.4448a32.3584 32.3584 0 0 1 32.3584 32.3584v106.4448c0 17.92-14.4896 32.3584-32.3584 32.3584z" fill="#DAA7FC" p-id="916"></path><path d="M607.6928 793.4976c-14.1312 0-25.6-11.4688-25.6-25.6v-131.2256c0-9.728-11.52-17.92-25.1392-17.92h-87.04c-13.6192 0-25.1392 8.192-25.1392 17.92v131.2256c0 14.1312-11.4688 25.6-25.6 25.6s-25.6-11.4688-25.6-25.6v-131.2256c0-38.0928 34.2528-69.12 76.3392-69.12h87.04c42.0864 0 76.3392 31.0272 76.3392 69.12v131.2256c0 14.1312-11.4688 25.6-25.6 25.6z" fill="#474747" p-id="917"></path></svg>